<?xml version="1.0" encoding="utf-8"?>
<!-- Generator: Adobe Illustrator 19.0.0, SVG Export Plug-In . SVG Version: 6.00 Build 0)  -->
<svg version="1.1" id="Layer_1" xmlns="http://www.w3.org/2000/svg" xmlns:xlink="http://www.w3.org/1999/xlink" x="0px" y="0px"
	 viewBox="0 0 500 500" style="enable-background:new 0 0 500 500;" xml:space="preserve">
<g id="XMLID_1_">
	<path id="XMLID_3_" d="M209.1,403.6c-0.4-0.1-1-0.2-1.8-0.3c-0.6,0.1-1.1,0.3-1.5,0.5c-0.4,0.2-0.8,0.6-1.3,1.2
		c-0.4,0.5-0.8,1.3-1,2.3l-3.4,9.8c-0.2,0.6-0.2,1,0.1,1.3c0.3,0.3,0.6,0.5,1,0.7c0.4,0.1,1,0.2,1.7,0.3c0.1,0,0.3,0,0.8-0.1
		c0.5-0.1,1-0.4,1.6-1c0.6-0.6,1.1-1.5,1.4-2.8l3.4-9.8c0.2-0.6,0.2-1-0.1-1.3C209.8,404,209.5,403.8,209.1,403.6z"/>
	<path id="XMLID_25_" d="M126.8,67.5v365h246.4v-365H126.8z M187.8,408.7l-0.3,0.8h-10.1l1.4-3.9c0.2-0.6,0.2-1-0.1-1.3
		c-0.3-0.3-0.6-0.5-1-0.7c-0.4-0.1-1-0.2-1.8-0.3c-0.6,0.1-1.1,0.3-1.5,0.5c-0.4,0.2-0.8,0.6-1.3,1.2c-0.4,0.5-0.8,1.3-1,2.3
		l-3.4,9.8c-0.2,0.6-0.2,1,0.1,1.3c0.3,0.3,0.6,0.5,1,0.7c0.4,0.1,1,0.2,1.7,0.3c0.1,0,0.3,0,0.8-0.1c0.5-0.1,1-0.4,1.6-1
		c0.6-0.6,1.1-1.5,1.4-2.8l0.8-2.2h10.1l-0.6,1.8c-0.6,1.8-1.4,3.3-2.6,4.4c-1.1,1.2-2.3,2.1-3.6,2.7c-1.2,0.7-2.5,1.1-3.7,1.4
		c-1.2,0.3-2.2,0.5-2.9,0.5c-0.7,0.1-1.1,0.1-1.1,0.1c-1.5-0.1-2.8-0.2-3.9-0.3c-1.1-0.2-2.3-0.5-3.5-0.9c-1.2-0.4-2.3-1-3.2-1.8
		c-0.9-0.8-1.5-1.7-1.9-2.9c-0.4-1.2-0.3-2.6,0.3-4.4l2.1-6.3c0.6-1.8,1.5-3.3,2.6-4.4c1.1-1.2,2.3-2.1,3.6-2.7
		c1.2-0.6,2.5-1.1,3.6-1.4c1.2-0.3,2.1-0.5,2.8-0.5c0.7-0.1,1.1-0.1,1.1-0.1c1.6,0.1,2.9,0.2,4,0.4c1.1,0.2,2.3,0.5,3.5,0.9
		c1.2,0.4,2.3,1,3.2,1.7c0.9,0.8,1.5,1.7,1.9,2.9C188.6,405.6,188.4,407,187.8,408.7z M217,415.1c-0.6,1.8-1.5,3.3-2.6,4.4
		c-1.1,1.2-2.3,2.1-3.6,2.7c-1.2,0.6-2.5,1.1-3.7,1.4c-1.2,0.3-2.1,0.5-2.8,0.5c-0.7,0.1-1.1,0.1-1.1,0.1c-1.5-0.1-2.8-0.2-3.9-0.3
		c-1.1-0.2-2.3-0.5-3.5-0.9c-1.2-0.4-2.3-1-3.2-1.8c-0.9-0.8-1.5-1.7-1.9-2.9c-0.4-1.2-0.3-2.6,0.3-4.4l2.1-6.3
		c0.6-1.8,1.5-3.3,2.6-4.4c1.1-1.2,2.3-2.1,3.6-2.7c1.2-0.6,2.5-1.1,3.6-1.4c1.2-0.3,2.1-0.5,2.8-0.5c0.7-0.1,1.1-0.1,1.1-0.1
		c1.5,0.1,2.8,0.2,3.9,0.3c1.1,0.2,2.3,0.5,3.5,0.9c1.2,0.4,2.3,1,3.2,1.8c0.9,0.8,1.5,1.7,1.9,2.9c0.4,1.2,0.3,2.6-0.3,4.4
		L217,415.1z M244.7,423.3l4.2-11.7l-7.9,11.7h-7.3l0-11.7l-4.2,11.7h-10.2l7.3-20.2l-5.9-3.9h20.6l0.5,9.4l6.7-9.4h14.9l-8.5,24.1
		H244.7z M262.5,423.3l7.3-20.2l-5.9-4h17.3l-8.5,24.1H262.5L262.5,423.3z M309.7,408.7l-0.3,0.8h-10.1l1.4-3.9
		c0.2-0.6,0.2-1-0.1-1.3c-0.3-0.3-0.6-0.5-1-0.7c-0.4-0.1-1-0.2-1.8-0.3c-0.6,0.1-1.1,0.3-1.5,0.5c-0.4,0.2-0.8,0.6-1.3,1.2
		c-0.4,0.5-0.8,1.3-1,2.3l-3.4,9.8c-0.2,0.6-0.2,1,0.1,1.3c0.3,0.3,0.6,0.5,1,0.7c0.4,0.1,1,0.2,1.7,0.3c0.1,0,0.3,0,0.8-0.1
		c0.5-0.1,1-0.4,1.6-1c0.6-0.6,1.1-1.5,1.4-2.8l0.8-2.2h10.1l-0.6,1.8c-0.6,1.8-1.4,3.3-2.6,4.4c-1.1,1.2-2.3,2.1-3.6,2.7
		c-1.2,0.7-2.5,1.1-3.7,1.4c-1.2,0.3-2.2,0.5-2.9,0.5c-0.7,0.1-1.1,0.1-1.1,0.1c-1.5-0.1-2.8-0.2-3.9-0.3c-1.1-0.2-2.3-0.5-3.5-0.9
		c-1.2-0.4-2.3-1-3.2-1.8c-0.9-0.8-1.5-1.7-1.9-2.9c-0.4-1.2-0.3-2.6,0.3-4.4l2.1-6.3c0.6-1.8,1.5-3.3,2.6-4.4
		c1.1-1.2,2.3-2.1,3.6-2.7c1.2-0.6,2.5-1.1,3.6-1.4c1.2-0.3,2.1-0.5,2.8-0.5c0.7-0.1,1.1-0.1,1.1-0.1c1.6,0.1,2.9,0.2,4,0.4
		c1.1,0.2,2.3,0.5,3.5,0.9c1.2,0.4,2.3,1,3.2,1.7c0.9,0.8,1.5,1.7,1.9,2.9C310.5,405.6,310.3,407,309.7,408.7z M340.5,406.7h-9.9
		l0.5-1.3c0.2-0.6,0.2-1-0.1-1.3c-0.3-0.3-0.6-0.5-1-0.7c-0.4-0.1-1-0.2-1.8-0.3c-0.8,0-1.3,0.1-1.5,0.4c-0.2,0.3-0.4,0.6-0.5,1
		c-0.2,0.6,0.1,1.1,0.7,1.6c0.6,0.5,1.4,0.9,2.4,1.4c1,0.5,2,0.9,3.1,1.5c1.1,0.5,2.1,1.1,3,1.8c0.9,0.7,1.5,1.5,1.9,2.4
		c0.4,0.9,0.4,2,0,3.2c-0.4,1.5-1.1,2.8-2.1,3.8c-1,1-2.1,1.8-3.4,2.3c-1.2,0.5-2.4,0.9-3.6,1.2c-1.2,0.2-2.1,0.4-2.9,0.4
		c-0.7,0-1.1,0.1-1.2,0.1c-2.2,0-4-0.2-5.5-0.5c-1.5-0.3-2.7-0.8-3.6-1.3c-0.9-0.5-1.7-1.1-2.2-1.8c-0.5-0.7-0.9-1.3-1.1-2
		c-0.2-0.7-0.3-1.3-0.3-1.9c0-0.6,0.1-1.2,0.2-1.6h10l-0.7,2c-0.2,0.6-0.1,1,0.1,1.3c0.3,0.3,0.6,0.5,1,0.7c0.4,0.2,1,0.3,1.7,0.3
		c0.7,0,1.3-0.2,1.8-0.6c0.5-0.4,0.9-0.9,1.2-1.4c0.3-0.5,0.3-1,0-1.5c-0.3-0.4-0.7-0.8-1.3-1.2c-0.6-0.3-1.4-0.7-2.2-1
		c-0.9-0.3-1.7-0.7-2.6-1.1c-0.9-0.4-1.8-0.8-2.6-1.3c-0.8-0.5-1.5-1-2.1-1.7c-0.6-0.6-0.9-1.4-1.1-2.2c-0.2-0.8-0.1-1.8,0.3-2.9
		c0.3-1.2,0.9-2.2,1.9-3c1-0.8,2.1-1.4,3.2-1.8c1.2-0.4,2.4-0.7,3.5-0.9c1.2-0.2,2.1-0.3,2.8-0.3c0.7,0,1.1,0,1.2,0
		c3,0,5.3,0.3,7,0.9c1.7,0.6,3,1.4,3.8,2.3c0.8,0.9,1.3,1.8,1.5,2.8C340.6,405.1,340.6,406,340.5,406.7z M369.6,390.9H130.5v-3.8
		h239.1V390.9z M185.3,353.9h17.3l-3.2,9.3h5.6l3.3-9.3h10l-8.5,24.1h-10.1l3.2-9.1h-5.6l-3.2,9.1H184l7.3-20.2L185.3,353.9z
		 M218.8,368.7l2.1-6.3c0.6-1.8,1.5-3.3,2.6-4.4c1.1-1.2,2.3-2.1,3.6-2.7c1.2-0.6,2.5-1.1,3.7-1.4c1.2-0.3,2.1-0.5,2.8-0.5
		c0.7-0.1,1.1-0.1,1.1-0.1c1.5,0.1,2.8,0.2,3.9,0.3c1.1,0.2,2.3,0.5,3.5,0.9c1.2,0.4,2.3,1,3.2,1.8c0.9,0.8,1.5,1.7,1.9,2.9
		c0.4,1.2,0.3,2.6-0.3,4.4l-2.1,6.3c-0.6,1.8-1.5,3.3-2.6,4.4c-1.1,1.2-2.3,2.1-3.6,2.7c-1.2,0.6-2.5,1.1-3.7,1.4
		c-1.2,0.3-2.1,0.5-2.8,0.5c-0.7,0.1-1.1,0.1-1.1,0.1c-1.5-0.1-2.8-0.2-3.9-0.3c-1.1-0.2-2.3-0.5-3.5-0.9c-1.2-0.4-2.3-1-3.2-1.8
		c-0.9-0.8-1.5-1.7-1.9-2.9C218.1,371.9,218.2,370.4,218.8,368.7z M248.8,353.9h20.6c1.2,0,2.2,0.1,3.1,0.4c0.9,0.3,1.7,0.5,2.3,0.8
		c0.6,0.3,1.2,0.7,1.9,1.2c0.5,0.6,0.8,1.3,1.1,1.8c0.2,0.6,0.4,1.3,0.5,2.2c0.1,0.9-0.1,1.8-0.4,2.9c-0.1,0.5-0.3,1.1-0.7,1.6
		c-0.3,0.5-0.7,1-1,1.3c-0.3,0.4-0.8,0.8-1.3,1.3c-0.8,0.6-1.6,1.1-2.6,1.4c-0.9,0.3-1.8,0.6-2.6,0.7l3.3,8.4h-9.3l-3.2-8.2
		l-2.9,8.2h-10.2l7.3-20.2L248.8,353.9z M290,372.8c0.3,0.3,0.6,0.5,1,0.7c0.4,0.2,1,0.3,1.7,0.3c0.7,0,1.3-0.2,1.8-0.6
		c0.5-0.4,0.9-0.9,1.2-1.4c0.3-0.5,0.3-1,0-1.5c-0.3-0.4-0.7-0.8-1.3-1.2c-0.6-0.3-1.4-0.7-2.2-1c-0.9-0.3-1.7-0.7-2.6-1.1
		c-0.9-0.4-1.8-0.8-2.6-1.3c-0.8-0.5-1.5-1-2.1-1.7c-0.6-0.6-0.9-1.4-1.1-2.2c-0.2-0.8-0.1-1.8,0.3-2.9c0.3-1.2,0.9-2.2,1.9-3
		c1-0.8,2.1-1.4,3.2-1.8c1.2-0.4,2.4-0.7,3.5-0.9c1.2-0.2,2.1-0.3,2.8-0.3c0.7,0,1.1,0,1.2,0c3,0,5.3,0.3,7,0.9
		c1.7,0.6,3,1.4,3.8,2.3c0.8,0.9,1.3,1.8,1.5,2.8c0.2,1,0.2,1.8,0.1,2.6h-9.9l0.5-1.3c0.2-0.6,0.2-1-0.1-1.3c-0.3-0.3-0.6-0.5-1-0.7
		c-0.4-0.1-1-0.2-1.8-0.3c-0.8,0-1.3,0.1-1.5,0.4c-0.2,0.3-0.4,0.6-0.5,1c-0.2,0.6,0.1,1.1,0.7,1.6c0.6,0.5,1.4,0.9,2.4,1.4
		c1,0.5,2,0.9,3.1,1.5c1.1,0.5,2.1,1.1,3,1.8c0.9,0.7,1.5,1.5,1.9,2.4c0.4,0.9,0.4,2,0,3.2c-0.4,1.5-1.1,2.8-2.1,3.8
		c-1,1-2.1,1.8-3.4,2.3c-1.2,0.5-2.4,0.9-3.6,1.2c-1.2,0.2-2.1,0.4-2.9,0.4c-0.7,0-1.1,0.1-1.2,0.1c-2.2,0-4-0.2-5.5-0.5
		c-1.5-0.3-2.7-0.8-3.6-1.3c-0.9-0.5-1.7-1.1-2.2-1.8c-0.5-0.7-0.9-1.3-1.1-2c-0.2-0.7-0.3-1.3-0.3-1.9c0-0.6,0.1-1.2,0.2-1.6h10
		l-0.7,2C289.7,372.1,289.8,372.5,290,372.8z M311.3,353.9H341l-2.1,5.7h-12.3l-1.3,3.7h6.6l-2.1,5.7h-6.6l-1.1,3.2h12.3l-2.1,5.7
		H310l7.3-20.2L311.3,353.9z M369.6,345.4H130.5v-3.7h239.1V345.4z M209.9,308.5h17.3c1.5,0.1,2.7,0.2,3.8,0.4
		c1,0.2,2.1,0.5,3.3,0.9c1.1,0.4,2.1,1,3,1.8c0.9,0.8,1.4,1.7,1.8,2.9c0.3,1.2,0.2,2.6-0.4,4.2l-1.7,4.7c-0.6,1.8-1.5,3.3-2.7,4.4
		c-1.2,1.2-2.3,2.1-3.6,2.7c-1.2,0.7-2.4,1.1-3.6,1.4c-1.2,0.3-2.1,0.5-2.8,0.5c-0.7,0.1-1.1,0.1-1.1,0.1h-14.6l7.3-20.2
		L209.9,308.5z M245.5,308.5h21.6l0.7,24.1h-10.6l0-2.6H250l-1.6,2.6h-10.5l13.6-20.2L245.5,308.5z M274.7,308.5h20.6
		c1.2,0,2.2,0.1,3.1,0.4c0.9,0.3,1.7,0.5,2.3,0.8c0.6,0.3,1.2,0.7,1.9,1.2c0.5,0.6,0.8,1.3,1.1,1.8c0.2,0.6,0.4,1.3,0.5,2.2
		c0.1,0.9-0.1,1.8-0.4,2.9c-0.1,0.5-0.3,1.1-0.7,1.6c-0.3,0.5-0.7,1-1,1.3c-0.4,0.4-0.8,0.8-1.3,1.3c-0.8,0.6-1.6,1.1-2.6,1.4
		c-0.9,0.3-1.8,0.6-2.6,0.7l3.3,8.4h-9.3l-3.2-8.2l-2.9,8.2h-10.2l7.3-20.2L274.7,308.5z M307.1,308.5h17.3l-3.4,9.7l9.1-9.7h11.1
		L329.6,321l3.1,11.7h-10.2l-2.6-11.4l-4,11.4h-10.2l7.3-20.2L307.1,308.5z M370,299.9H300c0,0,13.9-33.8,10.9-70.7
		c-3.9-48.7-27.5-78.6-27.5-78.6s34.2,24.3,35,93.7c0.3,26.6-7,48.4-7,48.4h33.7c0,0,4.4-11,6.6-21.1c3-14.2,3.5-28.5,3.5-28.5
		s-4.7,7.1-7,9.8c-4.6,5.4-7.5,6.6-7.5,6.6s6.6-9.5,10.9-25.9c4-15.3,3.3-32,3.3-32s-5.8,10.1-10.8,14.9c-1.9,1.8-3.7,2.5-3.7,2.5
		s4.9-10.7,6.9-24.1c2.4-15.7,0-28.3,0-28.3s-4.4,7.6-5.8,9.8c-2.6,3.8-6.5,6.8-6.5,6.8s4.1-12.7,4-26.4c-0.1-15.6-5.6-25-5.6-25
		s-3.6,11.3-6.4,16.4c-1.1,2-3,4.3-3,4.3s0-13.8-2.9-26.4c-3.1-13.9-12.2-23.2-12.2-23.2s-0.5,11-0.8,14.3c-0.5,6.7-3,11-3,11
		s-1.9-9.9-8.9-20.3C285.2,91.5,273.8,86,273.8,86s3.3,8.4,4.4,14.1c1.2,5.7,0.8,11.3,0.8,11.3s-11.3-11.1-24.9-17.4
		c-16.7-7.8-32.6-10.3-32.6-10.3s15.6,13.7,20.2,19.1c2.5,2.9,3.1,4.4,3.1,4.4s-13.8-6.2-41.5-8.6c-19.6-1.7-38.8,1.7-38.8,1.7
		s20.5,5.3,34.9,11.8c4.7,2.1,7.2,3.6,7.2,3.6s-17,2.8-27.9,6.3c-23.9,7.6-33.8,16.6-33.8,16.6s17.6-1.7,27.3-2.5
		c7-0.5,19.6,0.1,19.6,0.1l-21.8,22.4l4.5,12c0,0-3.7,22.5-4.5,27.2c-0.9,5.2-2.5,12.6-2.5,12.6s-1.4,7.9-2,10.3
		c-0.6,2.5-3,9.4-3,9.4l4.7,8.2l-0.5,9.8l16.5,10.2l1.7-1.3c0,0,0.3-4.9,4.4-10.8c4.1-5.8,8.4-7.7,9-7.5c0.5,0.2,1.8,5.3,1,9.5
		c-1.4,7.2-2.8,10-2.8,10s0.3,0.6,0.5,0.7c0.2,0.1,1,0.1,1,0.1c0,0,1.5-0.9,3.4-1.8c2.4-1.2,5.3-2.5,7.2-4.3c3.8-3.7,6.3-9.2,8-11.9
		c0.3-0.5,0.2-1.9,0.1-2.4c-1-3.9-4.3-5-4.4-12.5c-0.1-3.8,3.2-17.3,5.6-17.6c0.3,0,6.5-6,9.9-8.1c6-3.6,11.8-10.6,13-20.6
		c1.6-13.5-3.3-19.8-3.3-19.8s8.1,5,7,21c-1.2,16.3-12.5,23.9-12.5,23.9s12.4,13.3-4.5,49.8c-15.2,32.8-45.7,45-45.7,45h-50.9V71.2
		H370L370,299.9z M202,162.4c0.1,1.7-5.8,13.1-7.6,13.7c-3.6,1.1-8-3.9-8-3.9s12.4-12.5,13.4-12.5
		C200.7,159.8,201.9,160.8,202,162.4z M180.9,226.7c0,0,0.6,0.1,0.9,0.2c2.5,0.7,4.2,3.4,4.2,5.9c0,3.4-2.5,6.2-6.1,6.2
		c-3.4,0-6.1-3-6.1-5.6c0-0.2,0-0.9,0-0.9s2.2,4.3,4.9,4.2c3.5-0.1,3.9-3.3,4-3.8C183.3,230.1,180.9,226.7,180.9,226.7z"/>
	<path id="XMLID_26_" d="M224.4,327.3c0.4-0.2,0.8-0.6,1.3-1.2c0.4-0.5,0.8-1.3,1-2.3l2.9-8.1c0.2-0.6,0.2-1-0.1-1.3
		c-0.3-0.3-0.6-0.5-1-0.7c-0.4-0.1-1-0.2-1.8-0.3h-1.2l-5.1,14.4h2.4C223.5,327.7,224,327.6,224.4,327.3z"/>
	<path id="XMLID_27_" d="M267.8,363.7c0.2-0.1,0.4-0.2,0.6-0.4c0.2-0.2,0.3-0.4,0.4-0.6c0.1-0.2,0.2-0.5,0.2-0.7
		c0-0.2,0.1-0.4,0.1-0.5c0-0.2,0-0.5-0.1-0.7c-0.1-0.2-0.2-0.4-0.5-0.7c-0.5-0.3-1.2-0.5-1.9-0.5h-2.5l-1.6,4.4h2.9
		C266.3,364,267.1,363.9,267.8,363.7z"/>
	<polygon id="XMLID_28_" points="258.2,316.9 251.8,327 257.6,326.9 	"/>
	<path id="XMLID_29_" d="M293.6,318.4c0.2-0.1,0.4-0.2,0.6-0.4c0.2-0.2,0.3-0.4,0.4-0.6c0.1-0.2,0.2-0.5,0.2-0.7
		c0-0.2,0.1-0.4,0.1-0.5c0-0.2,0-0.5-0.1-0.7c-0.1-0.2-0.2-0.4-0.5-0.7c-0.5-0.3-1.2-0.5-1.9-0.5H290l-1.6,4.4h2.9
		C292.2,318.7,292.9,318.6,293.6,318.4z"/>
	<path id="XMLID_30_" d="M228.9,373.8c0.4,0.1,1,0.2,1.7,0.3c0.1,0,0.3,0,0.8-0.1c0.5-0.1,1-0.4,1.6-1c0.6-0.6,1.1-1.5,1.4-2.8
		l3.4-9.8c0.2-0.6,0.2-1-0.1-1.3c-0.3-0.3-0.6-0.5-1-0.7c-0.4-0.1-1-0.2-1.8-0.3c-0.6,0.1-1.1,0.3-1.5,0.5c-0.4,0.2-0.8,0.6-1.3,1.2
		c-0.4,0.5-0.8,1.3-1,2.3l-3.4,9.8c-0.2,0.6-0.2,1,0.1,1.3C228.1,373.4,228.5,373.6,228.9,373.8z"/>
</g>
</svg>
