<?xml version="1.0" encoding="utf-8"?>
<!-- Generator: Adobe Illustrator 14.0.0, SVG Export Plug-In . SVG Version: 6.00 Build 43363)  -->
<!DOCTYPE svg PUBLIC "-//W3C//DTD SVG 1.1//EN" "http://www.w3.org/Graphics/SVG/1.1/DTD/svg11.dtd">
<svg version="1.1" id="DC_x5F_Comics_1_" xmlns="http://www.w3.org/2000/svg" xmlns:xlink="http://www.w3.org/1999/xlink" x="0px"
	 y="0px" width="400px" height="300px" viewBox="0 0 400 300" enable-background="new 0 0 400 300" xml:space="preserve">
<path id="DC_x5F_Comics" fill="#0376F2" d="M201,28.986c-66.873,0-121.083,54.212-121.083,121.085S134.128,271.154,201,271.154
	s121.083-54.211,121.083-121.083C322.084,83.198,267.873,28.986,201,28.986z M88.823,150.071c0-13.008,2.188-25.679,6.513-37.751
	l11.646,8.089v90.896c-3.621-5.548-6.74-11.418-9.347-17.574C91.791,179.906,88.823,165.218,88.823,150.071z M280.32,229.392
	c-10.305,10.305-22.302,18.395-35.657,24.044c-13.824,5.848-28.515,8.812-43.663,8.812c-15.146,0-29.835-2.964-43.659-8.812
	c-13.359-5.649-25.354-13.739-35.661-24.043c-3.25-3.254-6.279-6.672-9.082-10.25h61.993l24.413-17.674v-96.195l-24.413-18.18
	h-66.447c3.961-5.826,8.484-11.287,13.536-16.343c10.306-10.306,22.302-18.396,35.661-24.044
	c13.824-5.848,28.513-8.813,43.659-8.813c15.148,0,29.838,2.965,43.663,8.813c13.354,5.648,25.354,13.738,35.657,24.044
	c5.056,5.054,9.573,10.517,13.535,16.343h-17.725l-3.981,8.793l-11.834-8.793h-27.532l-24.236,18.18v96.195l24.123,17.674h56.734
	C286.601,222.721,283.571,226.139,280.32,229.392z M131.732,117.319h22.171c6.203,0,11.23,5.025,11.23,11.229v49.712
	c0,6.201-5.027,11.229-11.23,11.229h-13.301v-65.744L131.732,117.319z M297.975,206.506v-34.277h-31.376v17.263h-13.553
	c-5.93,0-10.733-4.804-10.733-10.732V123.76l-8.875-6.439h33.161v18.842h28.761l5.722-36.822c1.172,2.311,2.268,4.668,3.281,7.069
	c5.849,13.824,8.813,28.513,8.813,43.662c0,15.146-2.965,29.836-8.813,43.659C302.499,198.141,300.367,202.403,297.975,206.506z"/>
</svg>
