<?xml version="1.0" encoding="utf-8"?>
<!-- Generator: Adobe Illustrator 19.0.0, SVG Export Plug-In . SVG Version: 6.00 Build 0)  -->
<svg version="1.1" id="Layer_1" xmlns="http://www.w3.org/2000/svg" xmlns:xlink="http://www.w3.org/1999/xlink" x="0px" y="0px"
	 viewBox="0 0 500 500" style="enable-background:new 0 0 500 500;" xml:space="preserve">
<style type="text/css">
	.st0{fill:#F4F4F0;}
</style>
<g id="XMLID_1_">
	<path id="XMLID_3_" d="M250,169.9c-31.5,0-59.9-7.1-80.6-18.6v281.2h161.2V151.3C309.9,162.8,281.4,169.9,250,169.9"/>
	<path id="XMLID_4_" d="M250,163.5c44.4,0,80.4-21.5,80.4-48c0-26.5-36-48-80.4-48s-80.4,21.5-80.4,48
		C169.6,142,205.6,163.5,250,163.5"/>
	<path id="XMLID_5_" class="st0" d="M194.3,381.7c1.2-0.1,2.8,0.1,3,1.2c0.1,0.4-0.3,2.5-0.7,2.8c-0.9,0.6-3.2,0.2-4.5,0.2
		c-2.9,0-6.7,0.7-5.7-2.6c0.1-0.3,0.1-1,0.4-1.3c0.5-0.6,2.5-0.4,3.5-0.3C191.9,381.8,193,381.8,194.3,381.7"/>
	<path id="XMLID_8_" class="st0" d="M320.5,403.9c0,1.2-0.3,2.1-0.4,3.1c-0.2,1.1-0.4,2.1-1,2.9c-1.1,1.7-3,2.1-6,2.1
		c-2.5,0-5.1,0-7.5,0c-2.7,0-4.9,0-6.6-1.1c-0.9-0.6-2-2-2-3.7c0-1.7,1.3-6.8,1.5-7.6c0.9-3.4,1.2-5.7,2.5-7.9
		c0.5-0.8,1.3-1.6,2-2.2c0.5-0.4,0.9-0.7,1.5-1.1c0.8-0.5,1.7-0.9,2.9-1c2.2-0.3,4.8-0.1,7.1-0.2c1.1,0,2.3,0.1,3.4,0.1
		c0.4,0,2.5,0.3,3.1,0.5c1.1,0.4,2.4,1.1,2.7,2c0.1,0.4,0.1,1.1,0.1,1.5c0,2.2-0.5,4.5-1.1,6c-0.4,1.1-1.4,2.3-2.7,2.4
		c-1.2,0.2-10.1,0-10.4,0.1c-0.8,0.3-1,2.8-0.6,3.8c0.7,1.6,3.7,1.2,5.9,1.1c0.7,0,1.7,0,2.3,0C318.9,404.8,319.2,404.1,320.5,403.9
		 M313.3,395.7c0.3-0.6,0.2-2.1,0-2.6c-0.2-0.4-0.8-0.9-1.3-0.8c-1.2,0.2-1.4,2.1-1.4,3.5C311.2,396.1,313,396.3,313.3,395.7"/>
	<path id="XMLID_11_" class="st0" d="M281.6,405.7c-1.3,0.4-1.7,1.4-2.6,2c-0.2,0.1-1.2,0.8-1.4,0.8c-0.3,0.1-1,0.2-1.4,0.2
		c-3.7,0.3-7.6,0-7.6-3.5c0-1.4,2.2-10.7,3.2-12.9c0.3-0.7,1.1-1.7,1.6-2.3c0.7-0.7,1.3-1.1,2.3-1.6c0.3-0.2,2.2-0.6,2.5-0.7
		c0.4-0.1,1-0.1,1.6-0.1c2.8-0.2,6.5,0,9.5-0.1c2.2-0.1,6.1-0.4,6.8,1.4c0.4,1.1,0.1,2.1-0.1,3.3c-0.1,0.7-2.6,10.5-2.7,11.2
		c-1,4-1.4,9.2-3.7,12c-1.8,2.2-4.5,3.2-8.4,3.2c-3.8,0-6.7,0.2-10.4,0.1c-2.1-0.1-4.4-0.6-4.4-3.2c0-0.4,0.4-2.4,0.5-2.9
		c0.1-0.7,0.4-2.3,0.9-2.4c0.6-0.1,1.7,1.1,2.3,1.3c1.1,0.4,2.9,0.3,4.7,0.2c0.9,0,3.7-0.4,4.2-0.6
		C280.7,410.4,281.7,408,281.6,405.7 M282.3,393.2c-0.2,0.3-0.5,1.1-0.6,1.5c-0.2,0.9-1.5,5.2-1.4,6c0.1,0.7,1.1,1.7,1.9,1.5
		c0.7-0.1,1.5-4.5,1.8-5.3c0.5-1.4,0.7-2.8,0.8-4.1C284.1,392.3,282.7,392.7,282.3,393.2"/>
	<path id="XMLID_14_" class="st0" d="M252.1,409.2c-0.9,0.3-1.2,1.1-1.7,1.7c-0.4,0.4-1,1-1.6,1.2c-1.6,0.6-6.5,0.6-8-0.1
		c-2.1-1-2.2-4.4-1.6-7.3c0.6-2.9,2.3-5.5,4.6-6.9c0.5-0.3,0.9-0.6,1.3-0.8c1.3-0.5,3.1-0.7,4.7-0.7c0.6,0,3.9,0,4.5,0
		c0.8,0,1.7-0.8,1.7-1.6c0-0.9-1.4-1.6-2.6-1.6c-2.3,0-7.2,1.2-7.4-1.5c-0.1-0.7,0.3-1.2,0.5-1.9c0.2-0.6,0.3-1.3,0.7-1.6
		c0.6-0.4,2.2-0.2,3.2-0.2c3.2,0,6.4-0.1,9.7-0.1c1.9,0,4.2-0.1,5.5,0.8c1.2,0.8,1.9,2.6,1.6,4.8c-0.2,1.2-3.2,13.6-3.3,14.3
		c-0.2,0.9-0.7,1.8-0.4,3c0.1,0.4,0.7,0.9,0.6,1.2c-0.1,0.7-3.4,0.4-4.3,0.4c-1.5,0-3.1,0-4.5,0c-0.7,0-2.1,0-2.6-0.2
		C251.8,411.7,252.1,410.5,252.1,409.2 M252,400.5c-0.7,0.5-1.7,3.7-1.1,5c0.2,0.4,1.1,0.8,1.6,0.6c0.6-0.2,0.7-1.9,0.9-2.6
		c0.3-1,0.6-1.8,0.6-2.9C253.5,400.1,252.5,400.2,252,400.5"/>
	<path id="XMLID_15_" class="st0" d="M221.2,412.3c-2.4,0.7-6.1,0.1-9,0.4c-1.5,0.1-2.7,0-2.8-1.3c-0.1-0.9,0.3-1.8,0.4-2.5
		c0.3-1.5,1.5-6.9,1.7-7.7c0.4-2,2.3-5.2,0.5-6.9c-1.3-0.3-1.8,1.1-2.1,2c-0.3,1.1-2.9,12.1-3.1,13.2c-0.2,1.4,0.2,2.1,0.6,2.9
		c-1.2,0.6-3.1,0.4-4.7,0.5c-1.8,0.1-4,0.1-5.9-0.1c-2.3-0.2-1.7-2-1.3-4.1c0.6-2.7,3.1-13.2,3.8-16c0.2-0.9,0.6-2,0.5-2.8
		c-0.1-0.5-0.9-1-0.8-1.4c0.2-0.6,2.6-0.4,3.6-0.4c2,0,4.6-0.2,6.4,0c0.8,0.1,1.7,0.5,2,0.9c0.3,0.5,0,1.1,0.4,1.6
		c0.7-0.1,1-0.8,1.4-1.2c0.4-0.5,1-1.1,1.7-1.3c0.7-0.2,1.7,0,2.8,0c0.9,0,1.9-0.1,2.8-0.1c1.8,0,4.2-0.2,4.9,0.9
		c0.3,0.5,0.1,1.4,0.5,1.7c1.2-0.4,1.4-1.5,2.3-2.1c1.4-0.8,4.1-0.4,6.2-0.6c0.5,0,1.3,0,2.1,0c2,0.1,3.2,0,3.1,2.2
		c0,0.4-2.6,11.4-3,12.9c-0.4,1.4-1.7,6.9-1.4,8c0.1,0.4,0.5,0.7,0.4,1.1c-0.7,0.5-1.7,0.3-2.6,0.3c-1.9,0-3.7,0-5.8,0
		c-1.8,0-3.3,0.2-3.5-1.3c-0.1-1.1,0.3-2.5,0.6-3.8c0.3-1.3,2.8-10.7,2.9-11.4c0.1-0.9-0.3-2-0.8-2.1c-0.9-0.2-1.5,0.6-1.8,1.2
		c-0.3,0.8-0.6,2-0.7,3c-0.4,2.6-2.4,10-2.5,10.6C220.7,410,220.6,411.3,221.2,412.3"/>
	<path id="XMLID_16_" class="st0" d="M183.8,388.5c1.3-0.6,3.1-0.2,4.8-0.2c1.1,0,2.2-0.1,3.1-0.1c2.3-0.1,4.3-0.2,4,2.5
		c-0.1,0.6-4.3,17.4-4.5,19.3c-0.1,0.5-0.1,1,0,1.3c0.1,0.4,0.6,0.7,0.5,1c-0.1,0.6-1.9,0.5-2.6,0.5c-2.3,0.1-3.8,0.1-6,0
		c-1.8-0.1-3.2,0.2-3.4-1.3c-0.1-0.5,0.1-1.2,0.2-1.8c0.4-2.1,3.5-14.5,3.8-15.7c0.3-1.2,0.8-2.6,0.7-3.7
		C184.3,389.5,183.9,389.1,183.8,388.5"/>
</g>
</svg>
